{
    "patcher": {
        "fileversion": 1,
        "appversion": {
            "major": 9,
            "minor": 1,
            "revision": 0,
            "architecture": "x64",
            "modernui": 1
        },
        "classnamespace": "box",
        "rect": [ 35.0, 203.0, 1658.0, 902.0 ],
        "boxes": [
            {
                "box": {
                    "id": "obj-23",
                    "linecount": 2,
                    "maxclass": "comment",
                    "numinlets": 1,
                    "numoutlets": 0,
                    "patching_rect": [ 1936.9047434329987, 449.4999566078186, 150.0, 33.0 ],
                    "text": "direktset panning ohne bewegung"
                }
            },
            {
                "box": {
                    "comment": "",
                    "id": "obj-11",
                    "index": 17,
                    "maxclass": "inlet",
                    "numinlets": 0,
                    "numoutlets": 1,
                    "outlettype": [ "" ],
                    "patching_rect": [ 1967.8571240901947, 101.1742314696312, 30.0, 30.0 ]
                }
            },
            {
                "box": {
                    "id": "obj-8",
                    "maxclass": "newobj",
                    "numinlets": 2,
                    "numoutlets": 1,
                    "outlettype": [ "" ],
                    "patching_rect": [ 1861.9047439098358, 453.0302630662918, 55.0, 22.0 ],
                    "text": "pak 0. 0."
                }
            },
            {
                "box": {
                    "comment": "",
                    "id": "obj-6",
                    "index": 16,
                    "maxclass": "inlet",
                    "numinlets": 0,
                    "numoutlets": 1,
                    "outlettype": [ "" ],
                    "patching_rect": [ 1886.9047439098358, 101.1742314696312, 30.0, 30.0 ]
                }
            },
            {
                "box": {
                    "comment": "",
                    "id": "obj-4",
                    "index": 1,
                    "maxclass": "inlet",
                    "numinlets": 0,
                    "numoutlets": 1,
                    "outlettype": [ "" ],
                    "patching_rect": [ 330.30300116539, 93.9278433918953, 30.0, 30.0 ]
                }
            },
            {
                "box": {
                    "comment": "",
                    "id": "obj-45",
                    "index": 13,
                    "maxclass": "inlet",
                    "numinlets": 0,
                    "numoutlets": 1,
                    "outlettype": [ "" ],
                    "patching_rect": [ 1548.7498522996902, 104.99998998641968, 34.84848177433014, 34.84848177433014 ]
                }
            },
            {
                "box": {
                    "comment": "",
                    "id": "obj-46",
                    "index": 12,
                    "maxclass": "inlet",
                    "numinlets": 0,
                    "numoutlets": 1,
                    "outlettype": [ "" ],
                    "patching_rect": [ 1428.749863743782, 109.99998950958252, 34.84848177433014, 34.84848177433014 ]
                }
            },
            {
                "box": {
                    "id": "obj-37",
                    "maxclass": "newobj",
                    "numinlets": 2,
                    "numoutlets": 1,
                    "outlettype": [ "signal" ],
                    "patching_rect": [ 1553.749851822853, 278.74997341632843, 43.0, 22.0 ],
                    "text": "+~ 0.5"
                }
            },
            {
                "box": {
                    "id": "obj-38",
                    "maxclass": "newobj",
                    "numinlets": 2,
                    "numoutlets": 1,
                    "outlettype": [ "signal" ],
                    "patching_rect": [ 1553.749851822853, 247.49997639656067, 40.0, 22.0 ],
                    "text": "*~ 0.5"
                }
            },
            {
                "box": {
                    "format": 6,
                    "id": "obj-39",
                    "maxclass": "flonum",
                    "numinlets": 1,
                    "numoutlets": 2,
                    "outlettype": [ "", "bang" ],
                    "parameter_enable": 0,
                    "patching_rect": [ 1548.7498522996902, 182.49998259544373, 50.0, 22.0 ]
                }
            },
            {
                "box": {
                    "id": "obj-40",
                    "maxclass": "newobj",
                    "numinlets": 2,
                    "numoutlets": 1,
                    "outlettype": [ "signal" ],
                    "patching_rect": [ 1553.749851822853, 211.24997985363007, 43.0, 22.0 ],
                    "text": "cycle~"
                }
            },
            {
                "box": {
                    "id": "obj-41",
                    "maxclass": "newobj",
                    "numinlets": 2,
                    "numoutlets": 1,
                    "outlettype": [ "float" ],
                    "patching_rect": [ 1554.9998517036438, 321.2499693632126, 81.0, 22.0 ],
                    "text": "snapshot~ 15"
                }
            },
            {
                "box": {
                    "format": 6,
                    "id": "obj-42",
                    "maxclass": "flonum",
                    "numinlets": 1,
                    "numoutlets": 2,
                    "outlettype": [ "", "bang" ],
                    "parameter_enable": 0,
                    "patching_rect": [ 1433.7498632669449, 346.2499669790268, 50.0, 22.0 ]
                }
            },
            {
                "box": {
                    "format": 6,
                    "id": "obj-43",
                    "maxclass": "flonum",
                    "numinlets": 1,
                    "numoutlets": 2,
                    "outlettype": [ "", "bang" ],
                    "parameter_enable": 0,
                    "patching_rect": [ 1554.9998517036438, 354.99996614456177, 50.0, 22.0 ]
                }
            },
            {
                "box": {
                    "id": "obj-44",
                    "maxclass": "newobj",
                    "numinlets": 2,
                    "numoutlets": 1,
                    "outlettype": [ "" ],
                    "patching_rect": [ 1461.2498606443405, 441.2499579191208, 55.0, 22.0 ],
                    "text": "pak 0. 0."
                }
            },
            {
                "box": {
                    "comment": "",
                    "id": "obj-35",
                    "index": 11,
                    "maxclass": "inlet",
                    "numinlets": 0,
                    "numoutlets": 1,
                    "outlettype": [ "" ],
                    "patching_rect": [ 1351.249871134758, 103.74999010562897, 34.84848177433014, 34.84848177433014 ]
                }
            },
            {
                "box": {
                    "comment": "",
                    "id": "obj-36",
                    "index": 10,
                    "maxclass": "inlet",
                    "numinlets": 0,
                    "numoutlets": 1,
                    "outlettype": [ "" ],
                    "patching_rect": [ 1266.2498792409897, 98.74999058246613, 34.84848177433014, 34.84848177433014 ]
                }
            },
            {
                "box": {
                    "id": "obj-34",
                    "maxclass": "newobj",
                    "numinlets": 2,
                    "numoutlets": 1,
                    "outlettype": [ "signal" ],
                    "patching_rect": [ 1268.749879002571, 346.2499669790268, 43.0, 22.0 ],
                    "text": "+~ 0.5"
                }
            },
            {
                "box": {
                    "id": "obj-33",
                    "maxclass": "newobj",
                    "numinlets": 2,
                    "numoutlets": 1,
                    "outlettype": [ "signal" ],
                    "patching_rect": [ 1268.749879002571, 313.7499700784683, 40.0, 22.0 ],
                    "text": "*~ 0.5"
                }
            },
            {
                "box": {
                    "format": 6,
                    "id": "obj-32",
                    "maxclass": "flonum",
                    "numinlets": 1,
                    "numoutlets": 2,
                    "outlettype": [ "", "bang" ],
                    "parameter_enable": 0,
                    "patching_rect": [ 1264.999879360199, 242.49997687339783, 50.0, 22.0 ]
                }
            },
            {
                "box": {
                    "id": "obj-30",
                    "maxclass": "newobj",
                    "numinlets": 2,
                    "numoutlets": 1,
                    "outlettype": [ "signal" ],
                    "patching_rect": [ 1268.749879002571, 278.74997341632843, 43.0, 22.0 ],
                    "text": "cycle~"
                }
            },
            {
                "box": {
                    "id": "obj-27",
                    "maxclass": "newobj",
                    "numinlets": 2,
                    "numoutlets": 1,
                    "outlettype": [ "float" ],
                    "patching_rect": [ 1271.2498787641525, 388.74996292591095, 81.0, 22.0 ],
                    "text": "snapshot~ 15"
                }
            },
            {
                "box": {
                    "format": 6,
                    "id": "obj-26",
                    "maxclass": "flonum",
                    "numinlets": 1,
                    "numoutlets": 2,
                    "outlettype": [ "", "bang" ],
                    "parameter_enable": 0,
                    "patching_rect": [ 1356.2498706579208, 422.49995970726013, 50.0, 22.0 ]
                }
            },
            {
                "box": {
                    "format": 6,
                    "id": "obj-24",
                    "maxclass": "flonum",
                    "numinlets": 1,
                    "numoutlets": 2,
                    "outlettype": [ "", "bang" ],
                    "parameter_enable": 0,
                    "patching_rect": [ 1271.2498787641525, 422.49995970726013, 50.0, 22.0 ]
                }
            },
            {
                "box": {
                    "id": "obj-22",
                    "maxclass": "newobj",
                    "numinlets": 2,
                    "numoutlets": 1,
                    "outlettype": [ "" ],
                    "patching_rect": [ 1271.2498787641525, 454.9999566078186, 55.0, 22.0 ],
                    "text": "pak 0. 0."
                }
            },
            {
                "box": {
                    "comment": "",
                    "id": "obj-21",
                    "index": 9,
                    "maxclass": "inlet",
                    "numinlets": 0,
                    "numoutlets": 1,
                    "outlettype": [ "" ],
                    "patching_rect": [ 1130.3029305934906, 96.96968841552734, 33.00721824169159, 33.00721824169159 ]
                }
            },
            {
                "box": {
                    "comment": "",
                    "id": "obj-20",
                    "index": 8,
                    "maxclass": "inlet",
                    "numinlets": 0,
                    "numoutlets": 1,
                    "outlettype": [ "" ],
                    "patching_rect": [ 1068.1817239522934, 96.96968841552734, 33.00721824169159, 33.00721824169159 ]
                }
            },
            {
                "box": {
                    "format": 6,
                    "id": "obj-15",
                    "maxclass": "flonum",
                    "numinlets": 1,
                    "numoutlets": 2,
                    "outlettype": [ "", "bang" ],
                    "parameter_enable": 0,
                    "patching_rect": [ 1130.3029305934906, 157.1212375164032, 50.0, 22.0 ]
                }
            },
            {
                "box": {
                    "format": 6,
                    "id": "obj-16",
                    "maxclass": "flonum",
                    "numinlets": 1,
                    "numoutlets": 2,
                    "outlettype": [ "", "bang" ],
                    "parameter_enable": 0,
                    "patching_rect": [ 1130.3029305934906, 258.6363800764084, 50.0, 22.0 ]
                }
            },
            {
                "box": {
                    "id": "obj-17",
                    "maxclass": "newobj",
                    "numinlets": 2,
                    "numoutlets": 1,
                    "outlettype": [ "float" ],
                    "patching_rect": [ 1130.3029305934906, 216.21214139461517, 81.0, 22.0 ],
                    "text": "snapshot~ 15"
                }
            },
            {
                "box": {
                    "id": "obj-18",
                    "maxclass": "newobj",
                    "numinlets": 2,
                    "numoutlets": 1,
                    "outlettype": [ "signal" ],
                    "patching_rect": [ 1130.3029305934906, 185.90911376476288, 52.0, 22.0 ],
                    "text": "phasor~"
                }
            },
            {
                "box": {
                    "format": 6,
                    "id": "obj-19",
                    "maxclass": "flonum",
                    "numinlets": 1,
                    "numoutlets": 2,
                    "outlettype": [ "", "bang" ],
                    "parameter_enable": 0,
                    "patching_rect": [ 1130.3029305934906, 305.60607290267944, 50.0, 22.0 ]
                }
            },
            {
                "box": {
                    "format": 6,
                    "id": "obj-14",
                    "maxclass": "flonum",
                    "numinlets": 1,
                    "numoutlets": 2,
                    "outlettype": [ "", "bang" ],
                    "parameter_enable": 0,
                    "patching_rect": [ 1068.1817239522934, 366.21212816238403, 50.0, 22.0 ]
                }
            },
            {
                "box": {
                    "format": 6,
                    "id": "obj-12",
                    "maxclass": "flonum",
                    "numinlets": 1,
                    "numoutlets": 2,
                    "outlettype": [ "", "bang" ],
                    "parameter_enable": 0,
                    "patching_rect": [ 1130.3029305934906, 366.21212816238403, 50.0, 22.0 ]
                }
            },
            {
                "box": {
                    "id": "obj-10",
                    "maxclass": "newobj",
                    "numinlets": 2,
                    "numoutlets": 1,
                    "outlettype": [ "" ],
                    "patching_rect": [ 1084.8483891487122, 445.0, 55.0, 22.0 ],
                    "text": "pak 0. 0."
                }
            },
            {
                "box": {
                    "format": 6,
                    "id": "obj-9",
                    "maxclass": "flonum",
                    "numinlets": 1,
                    "numoutlets": 2,
                    "outlettype": [ "", "bang" ],
                    "parameter_enable": 0,
                    "patching_rect": [ 935.2111361026764, 204.09093034267426, 50.0, 22.0 ]
                }
            },
            {
                "box": {
                    "format": 6,
                    "id": "obj-7",
                    "maxclass": "flonum",
                    "numinlets": 1,
                    "numoutlets": 2,
                    "outlettype": [ "", "bang" ],
                    "parameter_enable": 0,
                    "patching_rect": [ 935.2111361026764, 307.12122428417206, 50.0, 22.0 ]
                }
            },
            {
                "box": {
                    "id": "obj-5",
                    "maxclass": "newobj",
                    "numinlets": 2,
                    "numoutlets": 1,
                    "outlettype": [ "float" ],
                    "patching_rect": [ 935.2111361026764, 264.69698560237885, 81.0, 22.0 ],
                    "text": "snapshot~ 15"
                }
            },
            {
                "box": {
                    "id": "obj-1",
                    "maxclass": "newobj",
                    "numinlets": 2,
                    "numoutlets": 1,
                    "outlettype": [ "signal" ],
                    "patching_rect": [ 935.2111361026764, 234.39395797252655, 52.0, 22.0 ],
                    "text": "phasor~"
                }
            },
            {
                "box": {
                    "comment": "",
                    "id": "obj-3",
                    "index": 7,
                    "maxclass": "inlet",
                    "numinlets": 0,
                    "numoutlets": 1,
                    "outlettype": [ "" ],
                    "patching_rect": [ 934.8484023809433, 92.4242342710495, 33.00721824169159, 33.00721824169159 ]
                }
            },
            {
                "box": {
                    "comment": "",
                    "id": "obj-2",
                    "index": 6,
                    "maxclass": "inlet",
                    "numinlets": 0,
                    "numoutlets": 1,
                    "outlettype": [ "" ],
                    "patching_rect": [ 877.2726498842239, 89.39393150806427, 33.00721824169159, 33.00721824169159 ]
                }
            },
            {
                "box": {
                    "format": 6,
                    "id": "obj-801",
                    "maxclass": "flonum",
                    "numinlets": 1,
                    "numoutlets": 2,
                    "outlettype": [ "", "bang" ],
                    "parameter_enable": 0,
                    "patching_rect": [ 935.2111361026764, 354.0909171104431, 50.0, 22.0 ]
                }
            },
            {
                "box": {
                    "format": 6,
                    "id": "obj-802",
                    "maxclass": "flonum",
                    "numinlets": 1,
                    "numoutlets": 2,
                    "outlettype": [ "", "bang" ],
                    "parameter_enable": 0,
                    "patching_rect": [ 877.635383605957, 354.0909171104431, 50.0, 22.0 ]
                }
            },
            {
                "box": {
                    "id": "obj-803",
                    "maxclass": "newobj",
                    "numinlets": 2,
                    "numoutlets": 1,
                    "outlettype": [ "" ],
                    "patching_rect": [ 894.3020488023758, 445.0, 55.0, 22.0 ],
                    "text": "pak 0. 0."
                }
            },
            {
                "box": {
                    "id": "obj-683",
                    "maxclass": "newobj",
                    "numinlets": 5,
                    "numoutlets": 5,
                    "outlettype": [ "bang", "bang", "bang", "bang", "" ],
                    "patching_rect": [ 643.9393371343613, 169.24244856834412, 64.0, 22.0 ],
                    "text": "sel 0 1 2 3"
                }
            },
            {
                "box": {
                    "id": "obj-681",
                    "maxclass": "number",
                    "numinlets": 1,
                    "numoutlets": 2,
                    "outlettype": [ "", "bang" ],
                    "parameter_enable": 0,
                    "patching_rect": [ 645.4544885158539, 135.9091181755066, 50.0, 22.0 ]
                }
            },
            {
                "box": {
                    "id": "obj-673",
                    "maxclass": "newobj",
                    "numinlets": 1,
                    "numoutlets": 1,
                    "outlettype": [ "" ],
                    "patching_rect": [ 330.30300116539, 643.9393371343613, 129.0, 22.0 ],
                    "text": "MS_setnodes4corners"
                }
            },
            {
                "box": {
                    "id": "obj-502",
                    "maxclass": "newobj",
                    "numinlets": 2,
                    "numoutlets": 1,
                    "outlettype": [ "" ],
                    "patcher": {
                        "fileversion": 1,
                        "appversion": {
                            "major": 9,
                            "minor": 1,
                            "revision": 0,
                            "architecture": "x64",
                            "modernui": 1
                        },
                        "classnamespace": "box",
                        "rect": [ 109.0, 156.0, 1344.0, 902.0 ],
                        "boxes": [
                            {
                                "box": {
                                    "id": "obj-498",
                                    "maxclass": "newobj",
                                    "numinlets": 1,
                                    "numoutlets": 1,
                                    "outlettype": [ "" ],
                                    "patching_rect": [ 148.18183505535126, 100.0, 70.0, 22.0 ],
                                    "text": "loadmess 1"
                                }
                            },
                            {
                                "box": {
                                    "id": "obj-494",
                                    "maxclass": "newobj",
                                    "numinlets": 3,
                                    "numoutlets": 3,
                                    "outlettype": [ "dictionary", "", "" ],
                                    "patching_rect": [ 111.99999785423279, 231.47556674480438, 41.0, 22.0 ],
                                    "text": "matrix"
                                }
                            },
                            {
                                "box": {
                                    "id": "obj-474",
                                    "maxclass": "newobj",
                                    "numinlets": 2,
                                    "numoutlets": 1,
                                    "outlettype": [ "bang" ],
                                    "patching_rect": [ 197.25396025180817, 194.84535551071167, 63.0, 22.0 ],
                                    "text": "metro 200"
                                }
                            },
                            {
                                "box": {
                                    "id": "obj-473",
                                    "maxclass": "toggle",
                                    "numinlets": 1,
                                    "numoutlets": 1,
                                    "outlettype": [ "int" ],
                                    "parameter_enable": 0,
                                    "patching_rect": [ 146.7384991645813, 126.80412220954895, 24.0, 24.0 ]
                                }
                            },
                            {
                                "box": {
                                    "id": "obj-471",
                                    "maxclass": "newobj",
                                    "numinlets": 2,
                                    "numoutlets": 1,
                                    "outlettype": [ "bang" ],
                                    "patching_rect": [ 120.09090518951416, 194.84535551071167, 63.0, 22.0 ],
                                    "text": "metro 200"
                                }
                            },
                            {
                                "box": {
                                    "id": "obj-464",
                                    "maxclass": "comment",
                                    "numinlets": 1,
                                    "numoutlets": 0,
                                    "patching_rect": [ 153.18183612823486, 255.47556674480438, 59.99999785423279, 20.0 ],
                                    "text": "direkt"
                                }
                            },
                            {
                                "box": {
                                    "id": "obj-463",
                                    "maxclass": "comment",
                                    "numinlets": 1,
                                    "numoutlets": 0,
                                    "patching_rect": [ 50.0, 249.21277713775635, 59.99999785423279, 20.0 ],
                                    "text": "Interpol"
                                }
                            },
                            {
                                "box": {
                                    "id": "obj-461",
                                    "maxclass": "button",
                                    "numinlets": 1,
                                    "numoutlets": 1,
                                    "outlettype": [ "bang" ],
                                    "parameter_enable": 0,
                                    "patching_rect": [ 159.09090518951416, 285.57641220092773, 24.0, 24.0 ]
                                }
                            },
                            {
                                "box": {
                                    "id": "obj-459",
                                    "maxclass": "newobj",
                                    "numinlets": 2,
                                    "numoutlets": 1,
                                    "outlettype": [ "" ],
                                    "patcher": {
                                        "fileversion": 1,
                                        "appversion": {
                                            "major": 9,
                                            "minor": 1,
                                            "revision": 0,
                                            "architecture": "x64",
                                            "modernui": 1
                                        },
                                        "classnamespace": "box",
                                        "rect": [ -1490.0, 278.0, 1344.0, 902.0 ],
                                        "boxes": [
                                            {
                                                "box": {
                                                    "id": "obj-14",
                                                    "maxclass": "newobj",
                                                    "numinlets": 2,
                                                    "numoutlets": 1,
                                                    "outlettype": [ "" ],
                                                    "patching_rect": [ 415.0, 121.36752259731293, 94.0, 22.0 ],
                                                    "text": "random-norep 4"
                                                }
                                            },
                                            {
                                                "box": {
                                                    "id": "obj-13",
                                                    "maxclass": "newobj",
                                                    "numinlets": 5,
                                                    "numoutlets": 5,
                                                    "outlettype": [ "bang", "bang", "bang", "bang", "" ],
                                                    "patching_rect": [ 415.0, 167.5213692188263, 64.0, 22.0 ],
                                                    "text": "sel 0 1 2 3"
                                                }
                                            },
                                            {
                                                "box": {
                                                    "id": "obj-12",
                                                    "maxclass": "newobj",
                                                    "numinlets": 1,
                                                    "numoutlets": 2,
                                                    "outlettype": [ "float", "float" ],
                                                    "patching_rect": [ 374.3589781522751, 329.0598323941231, 61.0, 22.0 ],
                                                    "text": "unpack f f"
                                                }
                                            },
                                            {
                                                "box": {
                                                    "id": "obj-6",
                                                    "maxclass": "message",
                                                    "numinlets": 2,
                                                    "numoutlets": 1,
                                                    "outlettype": [ "" ],
                                                    "patching_rect": [ 358.97436261177063, 239.31624174118042, 29.5, 22.0 ],
                                                    "text": "0 0"
                                                }
                                            },
                                            {
                                                "box": {
                                                    "id": "obj-7",
                                                    "maxclass": "message",
                                                    "numinlets": 2,
                                                    "numoutlets": 1,
                                                    "outlettype": [ "" ],
                                                    "patching_rect": [ 327.35043066740036, 275.2136780023575, 29.5, 22.0 ],
                                                    "text": "0 1"
                                                }
                                            },
                                            {
                                                "box": {
                                                    "id": "obj-5",
                                                    "maxclass": "message",
                                                    "numinlets": 2,
                                                    "numoutlets": 1,
                                                    "outlettype": [ "" ],
                                                    "patching_rect": [ 437.6068420410156, 278.6324814558029, 29.5, 22.0 ],
                                                    "text": "1 1"
                                                }
                                            },
                                            {
                                                "box": {
                                                    "id": "obj-3",
                                                    "maxclass": "message",
                                                    "numinlets": 2,
                                                    "numoutlets": 1,
                                                    "outlettype": [ "" ],
                                                    "patching_rect": [ 423.0769273638725, 239.31624174118042, 29.5, 22.0 ],
                                                    "text": "1 0"
                                                }
                                            },
                                            {
                                                "box": {
                                                    "comment": "",
                                                    "id": "obj-1",
                                                    "index": 2,
                                                    "maxclass": "inlet",
                                                    "numinlets": 0,
                                                    "numoutlets": 1,
                                                    "outlettype": [ "bang" ],
                                                    "patching_rect": [ 415.0, 46.0, 30.0, 30.0 ]
                                                }
                                            },
                                            {
                                                "box": {
                                                    "id": "obj-450",
                                                    "maxclass": "newobj",
                                                    "numinlets": 2,
                                                    "numoutlets": 1,
                                                    "outlettype": [ "" ],
                                                    "patching_rect": [ 174.0, 100.0, 122.0, 22.0 ],
                                                    "text": "random @range 0. 1."
                                                }
                                            },
                                            {
                                                "box": {
                                                    "id": "obj-449",
                                                    "maxclass": "newobj",
                                                    "numinlets": 2,
                                                    "numoutlets": 1,
                                                    "outlettype": [ "" ],
                                                    "patching_rect": [ 50.0, 100.0, 122.0, 22.0 ],
                                                    "text": "random @range 0. 1."
                                                }
                                            },
                                            {
                                                "box": {
                                                    "format": 6,
                                                    "id": "obj-448",
                                                    "maxclass": "flonum",
                                                    "numinlets": 1,
                                                    "numoutlets": 2,
                                                    "outlettype": [ "", "bang" ],
                                                    "parameter_enable": 0,
                                                    "patching_rect": [ 257.26495987176895, 435.04273945093155, 50.0, 22.0 ]
                                                }
                                            },
                                            {
                                                "box": {
                                                    "format": 6,
                                                    "id": "obj-446",
                                                    "maxclass": "flonum",
                                                    "numinlets": 1,
                                                    "numoutlets": 2,
                                                    "outlettype": [ "", "bang" ],
                                                    "parameter_enable": 0,
                                                    "patching_rect": [ 186.32478821277618, 435.04273945093155, 50.0, 22.0 ]
                                                }
                                            },
                                            {
                                                "box": {
                                                    "id": "obj-418",
                                                    "maxclass": "newobj",
                                                    "numinlets": 2,
                                                    "numoutlets": 1,
                                                    "outlettype": [ "" ],
                                                    "patching_rect": [ 186.32478821277618, 470.08547484874725, 80.0, 22.0 ],
                                                    "text": "pak 0. 0."
                                                }
                                            },
                                            {
                                                "box": {
                                                    "comment": "",
                                                    "id": "obj-453",
                                                    "index": 1,
                                                    "maxclass": "inlet",
                                                    "numinlets": 0,
                                                    "numoutlets": 1,
                                                    "outlettype": [ "bang" ],
                                                    "patching_rect": [ 105.99998289273071, 40.000026294334475, 30.0, 30.0 ]
                                                }
                                            },
                                            {
                                                "box": {
                                                    "comment": "",
                                                    "id": "obj-458",
                                                    "index": 1,
                                                    "maxclass": "outlet",
                                                    "numinlets": 1,
                                                    "numoutlets": 0,
                                                    "patching_rect": [ 186.32478821277618, 552.1367577314377, 30.0, 30.0 ]
                                                }
                                            }
                                        ],
                                        "lines": [
                                            {
                                                "patchline": {
                                                    "destination": [ "obj-14", 0 ],
                                                    "source": [ "obj-1", 0 ]
                                                }
                                            },
                                            {
                                                "patchline": {
                                                    "destination": [ "obj-446", 0 ],
                                                    "source": [ "obj-12", 0 ]
                                                }
                                            },
                                            {
                                                "patchline": {
                                                    "destination": [ "obj-448", 0 ],
                                                    "source": [ "obj-12", 1 ]
                                                }
                                            },
                                            {
                                                "patchline": {
                                                    "destination": [ "obj-3", 0 ],
                                                    "source": [ "obj-13", 1 ]
                                                }
                                            },
                                            {
                                                "patchline": {
                                                    "destination": [ "obj-5", 0 ],
                                                    "source": [ "obj-13", 3 ]
                                                }
                                            },
                                            {
                                                "patchline": {
                                                    "destination": [ "obj-6", 0 ],
                                                    "source": [ "obj-13", 0 ]
                                                }
                                            },
                                            {
                                                "patchline": {
                                                    "destination": [ "obj-7", 0 ],
                                                    "source": [ "obj-13", 2 ]
                                                }
                                            },
                                            {
                                                "patchline": {
                                                    "destination": [ "obj-13", 0 ],
                                                    "source": [ "obj-14", 0 ]
                                                }
                                            },
                                            {
                                                "patchline": {
                                                    "destination": [ "obj-12", 0 ],
                                                    "source": [ "obj-3", 0 ]
                                                }
                                            },
                                            {
                                                "patchline": {
                                                    "destination": [ "obj-458", 0 ],
                                                    "source": [ "obj-418", 0 ]
                                                }
                                            },
                                            {
                                                "patchline": {
                                                    "destination": [ "obj-418", 0 ],
                                                    "source": [ "obj-446", 0 ]
                                                }
                                            },
                                            {
                                                "patchline": {
                                                    "destination": [ "obj-418", 1 ],
                                                    "source": [ "obj-448", 0 ]
                                                }
                                            },
                                            {
                                                "patchline": {
                                                    "destination": [ "obj-446", 0 ],
                                                    "source": [ "obj-449", 0 ]
                                                }
                                            },
                                            {
                                                "patchline": {
                                                    "destination": [ "obj-448", 0 ],
                                                    "source": [ "obj-450", 0 ]
                                                }
                                            },
                                            {
                                                "patchline": {
                                                    "destination": [ "obj-449", 0 ],
                                                    "order": 1,
                                                    "source": [ "obj-453", 0 ]
                                                }
                                            },
                                            {
                                                "patchline": {
                                                    "destination": [ "obj-450", 0 ],
                                                    "order": 0,
                                                    "source": [ "obj-453", 0 ]
                                                }
                                            },
                                            {
                                                "patchline": {
                                                    "destination": [ "obj-12", 0 ],
                                                    "source": [ "obj-5", 0 ]
                                                }
                                            },
                                            {
                                                "patchline": {
                                                    "destination": [ "obj-12", 0 ],
                                                    "source": [ "obj-6", 0 ]
                                                }
                                            },
                                            {
                                                "patchline": {
                                                    "destination": [ "obj-12", 0 ],
                                                    "source": [ "obj-7", 0 ]
                                                }
                                            }
                                        ]
                                    },
                                    "patching_rect": [ 72.4296914935112, 322.2701293230057, 106.0, 22.0 ],
                                    "text": "p Random Panner"
                                }
                            },
                            {
                                "box": {
                                    "id": "obj-452",
                                    "maxclass": "button",
                                    "numinlets": 1,
                                    "numoutlets": 1,
                                    "outlettype": [ "bang" ],
                                    "parameter_enable": 0,
                                    "patching_rect": [ 72.4296914935112, 281.9459080696106, 24.0, 24.0 ]
                                }
                            },
                            {
                                "box": {
                                    "comment": "",
                                    "id": "obj-499",
                                    "index": 1,
                                    "maxclass": "inlet",
                                    "numinlets": 0,
                                    "numoutlets": 1,
                                    "outlettype": [ "list" ],
                                    "patching_rect": [ 112.00001999604797, 40.00002262834937, 30.0, 30.0 ]
                                }
                            },
                            {
                                "box": {
                                    "comment": "",
                                    "id": "obj-500",
                                    "index": 2,
                                    "maxclass": "inlet",
                                    "numinlets": 0,
                                    "numoutlets": 1,
                                    "outlettype": [ "" ],
                                    "patching_rect": [ 152.67244499604794, 40.00002262834937, 30.0, 30.0 ]
                                }
                            },
                            {
                                "box": {
                                    "comment": "",
                                    "id": "obj-501",
                                    "index": 1,
                                    "maxclass": "outlet",
                                    "numinlets": 1,
                                    "numoutlets": 0,
                                    "patching_rect": [ 72.42970799604802, 404.27004262834953, 30.0, 30.0 ]
                                }
                            }
                        ],
                        "lines": [
                            {
                                "patchline": {
                                    "destination": [ "obj-459", 0 ],
                                    "source": [ "obj-452", 0 ]
                                }
                            },
                            {
                                "patchline": {
                                    "destination": [ "obj-501", 0 ],
                                    "source": [ "obj-459", 0 ]
                                }
                            },
                            {
                                "patchline": {
                                    "destination": [ "obj-459", 1 ],
                                    "source": [ "obj-461", 0 ]
                                }
                            },
                            {
                                "patchline": {
                                    "destination": [ "obj-494", 1 ],
                                    "source": [ "obj-471", 0 ]
                                }
                            },
                            {
                                "patchline": {
                                    "destination": [ "obj-471", 0 ],
                                    "order": 1,
                                    "source": [ "obj-473", 0 ]
                                }
                            },
                            {
                                "patchline": {
                                    "destination": [ "obj-474", 0 ],
                                    "order": 0,
                                    "source": [ "obj-473", 0 ]
                                }
                            },
                            {
                                "patchline": {
                                    "destination": [ "obj-494", 2 ],
                                    "source": [ "obj-474", 0 ]
                                }
                            },
                            {
                                "patchline": {
                                    "destination": [ "obj-452", 0 ],
                                    "source": [ "obj-494", 1 ]
                                }
                            },
                            {
                                "patchline": {
                                    "destination": [ "obj-461", 0 ],
                                    "source": [ "obj-494", 2 ]
                                }
                            },
                            {
                                "patchline": {
                                    "destination": [ "obj-473", 0 ],
                                    "source": [ "obj-498", 0 ]
                                }
                            },
                            {
                                "patchline": {
                                    "destination": [ "obj-494", 0 ],
                                    "source": [ "obj-499", 0 ]
                                }
                            },
                            {
                                "patchline": {
                                    "destination": [ "obj-471", 1 ],
                                    "order": 1,
                                    "source": [ "obj-500", 0 ]
                                }
                            },
                            {
                                "patchline": {
                                    "destination": [ "obj-474", 1 ],
                                    "order": 0,
                                    "source": [ "obj-500", 0 ]
                                }
                            }
                        ]
                    },
                    "patching_rect": [ 1668.7498408555984, 453.0302630662918, 144.0, 22.0 ],
                    "text": "p Randompanner+Switch"
                }
            },
            {
                "box": {
                    "id": "obj-468",
                    "maxclass": "newobj",
                    "numinlets": 8,
                    "numoutlets": 1,
                    "outlettype": [ "" ],
                    "patching_rect": [ 556.0, 563.0, 1286.3498049020766, 22.0 ],
                    "text": "switch 7"
                }
            },
            {
                "box": {
                    "id": "obj-444",
                    "maxclass": "message",
                    "numinlets": 2,
                    "numoutlets": 1,
                    "outlettype": [ "" ],
                    "patching_rect": [ 709.0908465385437, 204.09093034267426, 32.0, 22.0 ],
                    "text": "0.75"
                }
            },
            {
                "box": {
                    "id": "obj-441",
                    "maxclass": "message",
                    "numinlets": 2,
                    "numoutlets": 1,
                    "outlettype": [ "" ],
                    "patching_rect": [ 665.1514564752579, 204.09093034267426, 29.5, 22.0 ],
                    "text": "0.5"
                }
            },
            {
                "box": {
                    "id": "obj-439",
                    "maxclass": "message",
                    "numinlets": 2,
                    "numoutlets": 1,
                    "outlettype": [ "" ],
                    "patching_rect": [ 612.1211581230164, 204.09093034267426, 32.0, 22.0 ],
                    "text": "0.25"
                }
            },
            {
                "box": {
                    "id": "obj-437",
                    "maxclass": "message",
                    "numinlets": 2,
                    "numoutlets": 1,
                    "outlettype": [ "" ],
                    "patching_rect": [ 572.7272222042084, 204.09093034267426, 29.5, 22.0 ],
                    "text": "0"
                }
            },
            {
                "box": {
                    "id": "obj-435",
                    "maxclass": "newobj",
                    "numinlets": 3,
                    "numoutlets": 1,
                    "outlettype": [ "" ],
                    "patcher": {
                        "fileversion": 1,
                        "appversion": {
                            "major": 9,
                            "minor": 1,
                            "revision": 0,
                            "architecture": "x64",
                            "modernui": 1
                        },
                        "classnamespace": "box",
                        "rect": [ -1378.0, 264.0, 1344.0, 902.0 ],
                        "boxes": [
                            {
                                "box": {
                                    "id": "obj-403",
                                    "maxclass": "newobj",
                                    "numinlets": 2,
                                    "numoutlets": 1,
                                    "outlettype": [ "signal" ],
                                    "patching_rect": [ 261.6179566383362, 147.619047164917, 90.0, 22.0 ],
                                    "text": "cycle~ 0.05"
                                }
                            },
                            {
                                "box": {
                                    "id": "obj-404",
                                    "maxclass": "newobj",
                                    "numinlets": 2,
                                    "numoutlets": 1,
                                    "outlettype": [ "signal" ],
                                    "patching_rect": [ 261.6179566383362, 178.57142782211304, 60.0, 22.0 ],
                                    "text": "*~ 0.5"
                                }
                            },
                            {
                                "box": {
                                    "id": "obj-406",
                                    "maxclass": "newobj",
                                    "numinlets": 2,
                                    "numoutlets": 1,
                                    "outlettype": [ "signal" ],
                                    "patching_rect": [ 261.6179566383362, 208.33333230018616, 60.0, 22.0 ],
                                    "text": "*~ 0.5"
                                }
                            },
                            {
                                "box": {
                                    "id": "obj-408",
                                    "maxclass": "newobj",
                                    "numinlets": 2,
                                    "numoutlets": 1,
                                    "outlettype": [ "signal" ],
                                    "patching_rect": [ 261.6179566383362, 241.66666531562805, 60.0, 22.0 ],
                                    "text": "+~ 0.5"
                                }
                            },
                            {
                                "box": {
                                    "id": "obj-411",
                                    "maxclass": "newobj",
                                    "numinlets": 2,
                                    "numoutlets": 1,
                                    "outlettype": [ "float" ],
                                    "patching_rect": [ 261.6179566383362, 352.45176166296005, 90.0, 22.0 ],
                                    "text": "snapshot~ 16"
                                }
                            },
                            {
                                "box": {
                                    "id": "obj-413",
                                    "maxclass": "newobj",
                                    "numinlets": 2,
                                    "numoutlets": 1,
                                    "outlettype": [ "signal" ],
                                    "patching_rect": [ 50.0, 175.0, 180.0, 22.0 ],
                                    "text": "cycle~ 0.05 @phase 0.25"
                                }
                            },
                            {
                                "box": {
                                    "id": "obj-414",
                                    "maxclass": "newobj",
                                    "numinlets": 2,
                                    "numoutlets": 1,
                                    "outlettype": [ "signal" ],
                                    "patching_rect": [ 50.0, 248.68265056610107, 60.0, 22.0 ],
                                    "text": "*~ 0.5"
                                }
                            },
                            {
                                "box": {
                                    "id": "obj-415",
                                    "maxclass": "newobj",
                                    "numinlets": 2,
                                    "numoutlets": 1,
                                    "outlettype": [ "signal" ],
                                    "patching_rect": [ 366.8767775297165, 282.2970188856125, 60.0, 22.0 ],
                                    "text": "*~ 0.5"
                                }
                            },
                            {
                                "box": {
                                    "id": "obj-416",
                                    "maxclass": "newobj",
                                    "numinlets": 2,
                                    "numoutlets": 1,
                                    "outlettype": [ "signal" ],
                                    "patching_rect": [ 366.8767775297165, 316.4146673679352, 60.0, 22.0 ],
                                    "text": "+~ 0.5"
                                }
                            },
                            {
                                "box": {
                                    "id": "obj-417",
                                    "maxclass": "newobj",
                                    "numinlets": 2,
                                    "numoutlets": 1,
                                    "outlettype": [ "float" ],
                                    "patching_rect": [ 366.8767775297165, 352.45176166296005, 90.0, 22.0 ],
                                    "text": "snapshot~ 16"
                                }
                            },
                            {
                                "box": {
                                    "id": "obj-418",
                                    "maxclass": "newobj",
                                    "numinlets": 2,
                                    "numoutlets": 1,
                                    "outlettype": [ "" ],
                                    "patching_rect": [ 266.6179566383362, 396.2381625175476, 80.0, 22.0 ],
                                    "text": "pak 0. 0."
                                }
                            },
                            {
                                "box": {
                                    "id": "obj-421",
                                    "maxclass": "newobj",
                                    "numinlets": 2,
                                    "numoutlets": 1,
                                    "outlettype": [ "float" ],
                                    "patching_rect": [ 407.8767775297165, 241.66666531562805, 50.0, 22.0 ],
                                    "text": "* 0.5"
                                }
                            },
                            {
                                "box": {
                                    "id": "obj-424",
                                    "maxclass": "message",
                                    "numinlets": 2,
                                    "numoutlets": 1,
                                    "outlettype": [ "" ],
                                    "patching_rect": [ 50.0, 100.0, 70.0, 22.0 ],
                                    "text": "phase $1"
                                }
                            },
                            {
                                "box": {
                                    "comment": "",
                                    "id": "obj-431",
                                    "index": 1,
                                    "maxclass": "inlet",
                                    "numinlets": 0,
                                    "numoutlets": 1,
                                    "outlettype": [ "" ],
                                    "patching_rect": [ 50.000008055587784, 39.999953449646, 30.0, 30.0 ]
                                }
                            },
                            {
                                "box": {
                                    "comment": "",
                                    "id": "obj-432",
                                    "index": 2,
                                    "maxclass": "inlet",
                                    "numinlets": 0,
                                    "numoutlets": 1,
                                    "outlettype": [ "" ],
                                    "patching_rect": [ 149.80896805558774, 39.999953449646, 30.0, 30.0 ]
                                }
                            },
                            {
                                "box": {
                                    "comment": "",
                                    "id": "obj-433",
                                    "index": 3,
                                    "maxclass": "inlet",
                                    "numinlets": 0,
                                    "numoutlets": 1,
                                    "outlettype": [ "" ],
                                    "patching_rect": [ 407.8767780555878, 39.999953449646, 30.0, 30.0 ]
                                }
                            },
                            {
                                "box": {
                                    "comment": "",
                                    "id": "obj-434",
                                    "index": 1,
                                    "maxclass": "outlet",
                                    "numinlets": 1,
                                    "numoutlets": 0,
                                    "patching_rect": [ 184.4831630555878, 478.238112449646, 30.0, 30.0 ]
                                }
                            }
                        ],
                        "lines": [
                            {
                                "patchline": {
                                    "destination": [ "obj-404", 0 ],
                                    "source": [ "obj-403", 0 ]
                                }
                            },
                            {
                                "patchline": {
                                    "destination": [ "obj-406", 0 ],
                                    "source": [ "obj-404", 0 ]
                                }
                            },
                            {
                                "patchline": {
                                    "destination": [ "obj-408", 0 ],
                                    "source": [ "obj-406", 0 ]
                                }
                            },
                            {
                                "patchline": {
                                    "destination": [ "obj-411", 0 ],
                                    "source": [ "obj-408", 0 ]
                                }
                            },
                            {
                                "patchline": {
                                    "destination": [ "obj-418", 0 ],
                                    "source": [ "obj-411", 0 ]
                                }
                            },
                            {
                                "patchline": {
                                    "destination": [ "obj-414", 0 ],
                                    "source": [ "obj-413", 0 ]
                                }
                            },
                            {
                                "patchline": {
                                    "destination": [ "obj-415", 0 ],
                                    "source": [ "obj-414", 0 ]
                                }
                            },
                            {
                                "patchline": {
                                    "destination": [ "obj-416", 0 ],
                                    "source": [ "obj-415", 0 ]
                                }
                            },
                            {
                                "patchline": {
                                    "destination": [ "obj-417", 0 ],
                                    "source": [ "obj-416", 0 ]
                                }
                            },
                            {
                                "patchline": {
                                    "destination": [ "obj-418", 1 ],
                                    "source": [ "obj-417", 0 ]
                                }
                            },
                            {
                                "patchline": {
                                    "destination": [ "obj-434", 0 ],
                                    "source": [ "obj-418", 0 ]
                                }
                            },
                            {
                                "patchline": {
                                    "destination": [ "obj-406", 1 ],
                                    "order": 1,
                                    "source": [ "obj-421", 0 ]
                                }
                            },
                            {
                                "patchline": {
                                    "destination": [ "obj-415", 1 ],
                                    "order": 0,
                                    "source": [ "obj-421", 0 ]
                                }
                            },
                            {
                                "patchline": {
                                    "destination": [ "obj-413", 0 ],
                                    "source": [ "obj-424", 0 ]
                                }
                            },
                            {
                                "patchline": {
                                    "destination": [ "obj-424", 0 ],
                                    "source": [ "obj-431", 0 ]
                                }
                            },
                            {
                                "patchline": {
                                    "destination": [ "obj-403", 0 ],
                                    "order": 0,
                                    "source": [ "obj-432", 0 ]
                                }
                            },
                            {
                                "patchline": {
                                    "destination": [ "obj-413", 0 ],
                                    "order": 1,
                                    "source": [ "obj-432", 0 ]
                                }
                            },
                            {
                                "patchline": {
                                    "destination": [ "obj-421", 0 ],
                                    "source": [ "obj-433", 0 ]
                                }
                            }
                        ]
                    },
                    "patching_rect": [ 701.5150896310806, 453.0302630662918, 92.0, 22.0 ],
                    "text": "p XY KREis"
                }
            },
            {
                "box": {
                    "format": 6,
                    "id": "obj-422",
                    "maxclass": "flonum",
                    "maximum": 1.0,
                    "minimum": 0.0,
                    "numinlets": 1,
                    "numoutlets": 2,
                    "outlettype": [ "", "bang" ],
                    "parameter_enable": 0,
                    "patching_rect": [ 645.4544885158539, 258.6363800764084, 70.0, 22.0 ]
                }
            },
            {
                "box": {
                    "comment": "",
                    "id": "obj-700",
                    "index": 3,
                    "maxclass": "inlet",
                    "numinlets": 0,
                    "numoutlets": 1,
                    "outlettype": [ "int" ],
                    "patching_rect": [ 645.4544885158539, 84.39397120475769, 33.00721824169159, 33.00721824169159 ]
                }
            },
            {
                "box": {
                    "comment": "",
                    "id": "obj-701",
                    "index": 2,
                    "maxclass": "inlet",
                    "numinlets": 0,
                    "numoutlets": 1,
                    "outlettype": [ "int" ],
                    "patching_rect": [ 520.4963908791542, 84.39397120475769, 33.00721824169159, 33.00721824169159 ]
                }
            },
            {
                "box": {
                    "comment": "",
                    "id": "obj-702",
                    "index": 4,
                    "maxclass": "inlet",
                    "numinlets": 0,
                    "numoutlets": 1,
                    "outlettype": [ "" ],
                    "patching_rect": [ 745.4544796943665, 86.36362874507904, 33.00721824169159, 33.00721824169159 ]
                }
            },
            {
                "box": {
                    "comment": "",
                    "id": "obj-703",
                    "index": 5,
                    "maxclass": "inlet",
                    "numinlets": 0,
                    "numoutlets": 1,
                    "outlettype": [ "" ],
                    "patching_rect": [ 783.3332642316818, 86.36362874507904, 33.00721824169159, 33.00721824169159 ]
                }
            },
            {
                "box": {
                    "comment": "",
                    "id": "obj-704",
                    "index": 14,
                    "maxclass": "inlet",
                    "numinlets": 0,
                    "numoutlets": 1,
                    "outlettype": [ "list" ],
                    "patching_rect": [ 1668.7498408555984, 101.78029656410217, 33.00721824169159, 33.00721824169159 ]
                }
            },
            {
                "box": {
                    "comment": "",
                    "id": "obj-705",
                    "index": 15,
                    "maxclass": "inlet",
                    "numinlets": 0,
                    "numoutlets": 1,
                    "outlettype": [ "" ],
                    "patching_rect": [ 1793.7498289346695, 101.78029656410217, 33.00721824169159, 33.00721824169159 ]
                }
            },
            {
                "box": {
                    "comment": "",
                    "id": "obj-706",
                    "index": 1,
                    "maxclass": "outlet",
                    "numinlets": 1,
                    "numoutlets": 0,
                    "patching_rect": [ 522.0, 718.5185759067535, 30.0, 30.0 ]
                }
            }
        ],
        "lines": [
            {
                "patchline": {
                    "destination": [ "obj-5", 0 ],
                    "source": [ "obj-1", 0 ]
                }
            },
            {
                "patchline": {
                    "destination": [ "obj-468", 3 ],
                    "source": [ "obj-10", 0 ]
                }
            },
            {
                "patchline": {
                    "destination": [ "obj-8", 1 ],
                    "source": [ "obj-11", 0 ]
                }
            },
            {
                "patchline": {
                    "destination": [ "obj-10", 0 ],
                    "source": [ "obj-12", 0 ]
                }
            },
            {
                "patchline": {
                    "destination": [ "obj-10", 1 ],
                    "source": [ "obj-14", 0 ]
                }
            },
            {
                "patchline": {
                    "destination": [ "obj-18", 0 ],
                    "source": [ "obj-15", 0 ]
                }
            },
            {
                "patchline": {
                    "destination": [ "obj-19", 0 ],
                    "source": [ "obj-16", 0 ]
                }
            },
            {
                "patchline": {
                    "destination": [ "obj-16", 0 ],
                    "source": [ "obj-17", 0 ]
                }
            },
            {
                "patchline": {
                    "destination": [ "obj-17", 0 ],
                    "source": [ "obj-18", 0 ]
                }
            },
            {
                "patchline": {
                    "destination": [ "obj-12", 0 ],
                    "source": [ "obj-19", 0 ]
                }
            },
            {
                "patchline": {
                    "destination": [ "obj-802", 0 ],
                    "source": [ "obj-2", 0 ]
                }
            },
            {
                "patchline": {
                    "destination": [ "obj-14", 0 ],
                    "source": [ "obj-20", 0 ]
                }
            },
            {
                "patchline": {
                    "destination": [ "obj-15", 0 ],
                    "source": [ "obj-21", 0 ]
                }
            },
            {
                "patchline": {
                    "destination": [ "obj-468", 4 ],
                    "source": [ "obj-22", 0 ]
                }
            },
            {
                "patchline": {
                    "destination": [ "obj-22", 0 ],
                    "source": [ "obj-24", 0 ]
                }
            },
            {
                "patchline": {
                    "destination": [ "obj-22", 1 ],
                    "source": [ "obj-26", 0 ]
                }
            },
            {
                "patchline": {
                    "destination": [ "obj-24", 0 ],
                    "source": [ "obj-27", 0 ]
                }
            },
            {
                "patchline": {
                    "destination": [ "obj-9", 0 ],
                    "source": [ "obj-3", 0 ]
                }
            },
            {
                "patchline": {
                    "destination": [ "obj-33", 0 ],
                    "source": [ "obj-30", 0 ]
                }
            },
            {
                "patchline": {
                    "destination": [ "obj-30", 0 ],
                    "source": [ "obj-32", 0 ]
                }
            },
            {
                "patchline": {
                    "destination": [ "obj-34", 0 ],
                    "source": [ "obj-33", 0 ]
                }
            },
            {
                "patchline": {
                    "destination": [ "obj-27", 0 ],
                    "source": [ "obj-34", 0 ]
                }
            },
            {
                "patchline": {
                    "destination": [ "obj-26", 0 ],
                    "source": [ "obj-35", 0 ]
                }
            },
            {
                "patchline": {
                    "destination": [ "obj-32", 0 ],
                    "source": [ "obj-36", 0 ]
                }
            },
            {
                "patchline": {
                    "destination": [ "obj-41", 0 ],
                    "source": [ "obj-37", 0 ]
                }
            },
            {
                "patchline": {
                    "destination": [ "obj-37", 0 ],
                    "source": [ "obj-38", 0 ]
                }
            },
            {
                "patchline": {
                    "destination": [ "obj-40", 0 ],
                    "source": [ "obj-39", 0 ]
                }
            },
            {
                "patchline": {
                    "destination": [ "obj-673", 0 ],
                    "source": [ "obj-4", 0 ]
                }
            },
            {
                "patchline": {
                    "destination": [ "obj-38", 0 ],
                    "source": [ "obj-40", 0 ]
                }
            },
            {
                "patchline": {
                    "destination": [ "obj-43", 0 ],
                    "source": [ "obj-41", 0 ]
                }
            },
            {
                "patchline": {
                    "destination": [ "obj-44", 0 ],
                    "source": [ "obj-42", 0 ]
                }
            },
            {
                "patchline": {
                    "destination": [ "obj-435", 0 ],
                    "source": [ "obj-422", 0 ]
                }
            },
            {
                "patchline": {
                    "destination": [ "obj-44", 1 ],
                    "source": [ "obj-43", 0 ]
                }
            },
            {
                "patchline": {
                    "destination": [ "obj-468", 1 ],
                    "source": [ "obj-435", 0 ]
                }
            },
            {
                "patchline": {
                    "destination": [ "obj-422", 0 ],
                    "source": [ "obj-437", 0 ]
                }
            },
            {
                "patchline": {
                    "destination": [ "obj-422", 0 ],
                    "source": [ "obj-439", 0 ]
                }
            },
            {
                "patchline": {
                    "destination": [ "obj-468", 5 ],
                    "source": [ "obj-44", 0 ]
                }
            },
            {
                "patchline": {
                    "destination": [ "obj-422", 0 ],
                    "source": [ "obj-441", 0 ]
                }
            },
            {
                "patchline": {
                    "destination": [ "obj-422", 0 ],
                    "source": [ "obj-444", 0 ]
                }
            },
            {
                "patchline": {
                    "destination": [ "obj-39", 0 ],
                    "source": [ "obj-45", 0 ]
                }
            },
            {
                "patchline": {
                    "destination": [ "obj-42", 0 ],
                    "source": [ "obj-46", 0 ]
                }
            },
            {
                "patchline": {
                    "destination": [ "obj-706", 0 ],
                    "source": [ "obj-468", 0 ]
                }
            },
            {
                "patchline": {
                    "destination": [ "obj-7", 0 ],
                    "source": [ "obj-5", 0 ]
                }
            },
            {
                "patchline": {
                    "destination": [ "obj-468", 6 ],
                    "source": [ "obj-502", 0 ]
                }
            },
            {
                "patchline": {
                    "destination": [ "obj-8", 0 ],
                    "source": [ "obj-6", 0 ]
                }
            },
            {
                "patchline": {
                    "destination": [ "obj-706", 0 ],
                    "source": [ "obj-673", 0 ]
                }
            },
            {
                "patchline": {
                    "destination": [ "obj-683", 0 ],
                    "source": [ "obj-681", 0 ]
                }
            },
            {
                "patchline": {
                    "destination": [ "obj-437", 0 ],
                    "source": [ "obj-683", 0 ]
                }
            },
            {
                "patchline": {
                    "destination": [ "obj-439", 0 ],
                    "source": [ "obj-683", 1 ]
                }
            },
            {
                "patchline": {
                    "destination": [ "obj-441", 0 ],
                    "source": [ "obj-683", 2 ]
                }
            },
            {
                "patchline": {
                    "destination": [ "obj-444", 0 ],
                    "source": [ "obj-683", 3 ]
                }
            },
            {
                "patchline": {
                    "destination": [ "obj-801", 0 ],
                    "source": [ "obj-7", 0 ]
                }
            },
            {
                "patchline": {
                    "destination": [ "obj-681", 0 ],
                    "source": [ "obj-700", 0 ]
                }
            },
            {
                "patchline": {
                    "destination": [ "obj-468", 0 ],
                    "source": [ "obj-701", 0 ]
                }
            },
            {
                "patchline": {
                    "destination": [ "obj-435", 1 ],
                    "source": [ "obj-702", 0 ]
                }
            },
            {
                "patchline": {
                    "destination": [ "obj-435", 2 ],
                    "source": [ "obj-703", 0 ]
                }
            },
            {
                "patchline": {
                    "destination": [ "obj-502", 0 ],
                    "source": [ "obj-704", 0 ]
                }
            },
            {
                "patchline": {
                    "destination": [ "obj-502", 1 ],
                    "source": [ "obj-705", 0 ]
                }
            },
            {
                "patchline": {
                    "destination": [ "obj-468", 7 ],
                    "source": [ "obj-8", 0 ]
                }
            },
            {
                "patchline": {
                    "destination": [ "obj-803", 1 ],
                    "source": [ "obj-801", 0 ]
                }
            },
            {
                "patchline": {
                    "destination": [ "obj-803", 0 ],
                    "source": [ "obj-802", 0 ]
                }
            },
            {
                "patchline": {
                    "destination": [ "obj-468", 2 ],
                    "source": [ "obj-803", 0 ]
                }
            },
            {
                "patchline": {
                    "destination": [ "obj-1", 0 ],
                    "source": [ "obj-9", 0 ]
                }
            }
        ]
    }
}